<?xml version="1.0" standalone="no"?>
<!DOCTYPE svg PUBLIC "-//W3C//DTD SVG 20010904//EN"
 "http://www.w3.org/TR/2001/REC-SVG-20010904/DTD/svg10.dtd">
<svg version="1.0" xmlns="http://www.w3.org/2000/svg"
 width="780.000000pt" height="914.000000pt" viewBox="0 0 780.000000 914.000000"
 preserveAspectRatio="xMidYMid meet">

<g transform="translate(0.000000,914.000000) scale(0.100000,-0.100000)"
fill="#000000" stroke="none">
<path d="M4118 8984 c-10 -11 -52 -20 -124 -29 -74 -8 -122 -19 -149 -34 -36
-19 -50 -21 -130 -15 -49 3 -105 9 -122 14 -41 11 -54 -6 -23 -30 20 -15 21
-18 5 -23 -18 -8 -45 4 -65 28 -11 13 -15 13 -29 2 -9 -8 -77 -21 -166 -32
-82 -9 -174 -24 -203 -31 -29 -8 -63 -14 -75 -14 -38 0 -246 -74 -346 -124
-52 -25 -107 -46 -122 -46 -16 0 -44 -14 -70 -36 -53 -44 -142 -90 -211 -108
-29 -7 -80 -25 -113 -38 -33 -14 -91 -35 -129 -47 -74 -24 -310 -142 -385
-194 -103 -70 -222 -182 -366 -346 -177 -201 -222 -268 -359 -535 -42 -81 -86
-161 -97 -178 -34 -47 -85 -149 -102 -203 -33 -106 -41 -196 -24 -292 9 -48
21 -131 26 -183 12 -107 41 -202 78 -257 14 -21 31 -55 39 -75 7 -21 25 -58
39 -82 38 -64 45 -96 55 -250 16 -226 57 -363 132 -438 74 -74 130 -61 74 18
-95 135 -91 120 -94 310 -2 94 1 187 6 205 8 32 9 33 20 13 6 -11 18 -74 27
-140 19 -144 43 -251 62 -282 8 -13 15 -33 16 -45 4 -39 39 -121 69 -160 41
-53 35 -69 -35 -86 -69 -16 -93 -43 -78 -85 6 -14 15 -26 21 -26 5 0 10 -9 10
-20 0 -27 -7 -25 -37 10 -14 17 -34 35 -45 41 -20 11 -20 9 -14 -27 9 -48 50
-128 81 -160 27 -27 37 -30 34 -11 -6 46 -1 50 57 44 60 -6 94 -28 94 -59 0
-10 10 -22 24 -27 25 -10 36 -44 36 -117 0 -37 -3 -44 -20 -44 -17 0 -20 -7
-20 -39 0 -22 5 -41 12 -43 9 -3 8 -19 -2 -66 -11 -55 -11 -67 5 -107 10 -27
32 -58 55 -76 33 -27 38 -36 43 -89 11 -100 63 -296 130 -490 85 -243 103
-319 148 -615 9 -57 45 -205 89 -365 24 -89 83 -217 138 -297 58 -85 178 -195
253 -231 35 -17 99 -41 143 -52 79 -21 130 -42 140 -59 3 -5 20 -132 36 -282
17 -151 37 -318 45 -371 24 -155 22 -168 -32 -245 -53 -78 -142 -259 -171
-349 -31 -94 -49 -122 -89 -139 -48 -20 -139 -95 -306 -253 l-137 -129 -218
-108 c-255 -126 -400 -190 -535 -235 -55 -18 -133 -47 -175 -66 l-77 -33 879
-1 878 0 -18 27 c-96 146 -99 228 -7 206 47 -11 71 -44 109 -153 l29 -80 1117
0 c615 0 1118 3 1118 6 0 14 -72 104 -114 142 -47 43 -96 71 -161 92 l-39 13
49 46 c28 25 79 80 115 121 97 113 173 190 187 190 20 0 15 -42 -12 -95 -27
-55 -25 -98 6 -93 19 3 79 -71 104 -130 20 -46 45 -39 65 17 18 51 34 61 50
30 9 -15 9 -33 2 -63 -28 -109 -24 -129 29 -140 22 -4 42 0 70 16 21 12 42 19
45 15 4 -3 -8 -27 -25 -53 -38 -57 -43 -114 -11 -114 12 0 33 11 48 25 15 14
37 25 49 25 15 0 23 6 23 18 0 21 18 42 37 42 7 0 13 -7 13 -15 0 -8 -5 -15
-10 -15 -10 0 -50 -58 -50 -72 0 -5 39 -8 88 -8 76 0 90 3 105 20 18 22 37 19
37 -6 0 -10 13 -14 50 -14 39 0 50 4 50 16 0 8 13 27 29 42 16 15 33 39 36 53
4 15 18 36 31 48 32 28 32 68 -1 83 -21 9 -25 18 -25 54 0 24 -7 59 -17 78
-15 32 -15 36 1 60 9 14 25 26 36 26 17 0 20 7 20 45 0 54 16 88 63 133 31 30
38 33 72 26 36 -6 37 -6 25 16 -7 13 -9 36 -5 57 l6 35 28 -26 c15 -14 33 -26
40 -26 12 0 50 73 51 97 0 16 87 135 105 146 8 4 19 24 26 45 18 57 34 69 102
77 77 8 106 23 126 66 18 38 61 54 61 22 -1 -32 -45 -126 -113 -237 -58 -94
-67 -116 -67 -157 0 -50 -12 -67 -218 -318 -54 -66 -269 -379 -301 -440 l-12
-21 961 0 960 0 0 389 0 389 -24 16 c-14 8 -95 49 -181 89 -114 54 -175 90
-226 132 -65 54 -112 79 -283 147 -27 10 -59 26 -70 34 -29 20 -70 17 -159
-11 -43 -14 -82 -25 -88 -25 -5 0 -28 18 -49 40 -22 22 -53 43 -70 47 -19 3
-38 16 -47 32 -9 14 -29 45 -44 69 -16 23 -29 52 -29 63 0 12 -20 41 -44 64
-35 35 -43 49 -39 70 4 20 -3 33 -33 63 -34 32 -72 102 -122 225 -7 15 -19 27
-30 27 -29 0 -42 21 -42 69 0 34 -8 58 -28 88 l-28 43 -17 -35 c-9 -20 -17
-42 -17 -51 0 -8 -20 -59 -45 -113 -25 -54 -45 -103 -45 -109 0 -14 -40 -25
-67 -20 -32 7 -18 52 50 160 35 57 69 113 76 125 15 29 14 68 -2 81 -29 24
-106 42 -185 42 -46 0 -92 4 -102 10 -24 13 -70 -23 -70 -55 0 -41 38 -148 71
-200 44 -68 48 -119 17 -187 -45 -95 -165 -243 -377 -463 -64 -66 -145 -154
-181 -195 -86 -100 -393 -420 -402 -420 -18 0 -5 32 32 81 48 63 57 91 41 125
-6 14 -11 38 -11 53 0 16 -6 34 -14 41 -8 6 -16 24 -18 38 -2 21 -9 28 -30 30
-15 2 -33 11 -40 21 -12 16 -21 17 -85 8 -72 -10 -73 -10 -100 -56 -20 -34
-29 -66 -35 -121 -16 -170 -25 -210 -57 -250 -17 -22 -31 -50 -31 -64 0 -33
-34 -56 -82 -56 -32 0 -46 7 -83 45 -25 24 -45 54 -45 65 0 23 -31 41 -38 22
-7 -23 -102 -6 -102 18 0 5 15 16 33 23 39 17 93 69 102 100 4 12 18 34 32 48
l24 27 -30 10 c-34 12 -44 38 -45 111 -1 44 0 45 54 76 70 39 73 61 8 58 -52
-3 -63 11 -32 41 14 15 13 19 -15 45 -17 16 -31 38 -31 49 0 11 -12 29 -27 40
-24 18 -28 27 -28 74 l0 53 -61 6 c-56 5 -72 11 -149 53 -16 9 -38 16 -47 16
-28 0 -22 51 11 96 39 54 276 283 331 320 25 17 94 57 154 89 139 74 236 148
366 278 112 111 203 231 278 365 43 77 53 87 131 140 159 107 251 210 292 329
10 31 19 72 19 92 l-1 36 -37 -44 c-107 -125 -102 -121 -178 -136 -39 -7 -100
-27 -137 -43 -36 -17 -84 -33 -106 -37 -23 -4 -43 -11 -46 -15 -3 -5 -27 -16
-53 -24 -49 -17 -82 -54 -82 -93 0 -33 -38 -83 -64 -83 -22 0 -44 -22 -71 -75
-8 -15 -22 -21 -63 -23 -47 -3 -52 -5 -58 -30 -11 -53 -24 -71 -81 -113 -32
-24 -74 -58 -94 -75 -20 -17 -67 -49 -105 -70 -38 -21 -85 -50 -104 -65 -19
-15 -48 -31 -65 -35 -16 -4 -50 -17 -75 -29 -61 -31 -239 -59 -302 -47 -26 5
-59 17 -72 26 -32 20 -50 20 -72 -1 -15 -16 -17 -16 -29 0 -8 12 -27 17 -58
17 -47 0 -47 -1 -105 78 l-18 24 -57 -26 c-57 -25 -58 -25 -77 -6 -11 11 -27
20 -36 20 -31 0 -156 103 -202 166 -23 31 -23 33 -6 59 26 40 138 121 192 140
26 9 70 27 97 40 28 14 76 31 108 39 103 26 128 56 87 109 -24 30 -24 35 -5
74 13 27 13 35 -4 84 -17 47 -23 55 -53 61 -18 4 -147 12 -286 18 -138 7 -264
15 -280 19 -37 10 -41 43 -6 70 35 28 138 60 389 120 262 64 281 66 385 46 47
-9 141 -20 209 -25 68 -5 157 -19 197 -30 126 -34 160 -26 190 47 22 52 17 78
-21 112 -20 17 -42 31 -50 31 -8 0 -34 10 -58 21 l-44 22 -97 -32 c-111 -35
-192 -40 -304 -16 -38 8 -134 19 -213 24 l-144 11 -37 -36 c-41 -41 -31 -42
-158 12 -57 24 -81 28 -197 32 -111 4 -133 7 -133 20 0 8 51 65 113 127 95 94
126 119 204 158 68 35 99 58 120 87 35 49 83 76 151 83 65 8 136 45 193 103
41 42 42 44 25 63 -23 26 -140 86 -194 101 -64 17 -135 14 -177 -6 -49 -23
-68 -67 -59 -134 5 -41 4 -51 -10 -56 -25 -10 -36 6 -45 65 -7 47 -16 60 -77
123 -38 38 -104 99 -146 134 -64 54 -84 78 -114 140 -22 43 -39 94 -42 124 -4
45 -1 57 34 113 l39 62 -1 130 c0 72 -2 160 -5 196 -4 64 -3 68 36 125 22 32
66 87 99 121 49 53 64 63 91 63 27 0 38 -7 56 -32 13 -18 48 -61 79 -94 69
-77 171 -245 263 -436 66 -137 99 -186 82 -120 -29 108 -27 110 45 57 27 -20
96 -58 154 -85 124 -58 135 -73 143 -190 5 -70 2 -86 -31 -181 -20 -57 -46
-117 -57 -132 -28 -38 -21 -61 18 -65 117 -11 279 168 277 308 -1 30 -9 82
-18 115 -17 55 -17 60 -1 71 9 7 36 15 58 19 196 29 328 103 473 266 62 70 74
79 169 127 44 22 151 80 237 130 162 92 216 113 403 155 130 30 143 27 189
-47 44 -72 47 -139 10 -213 -27 -54 -29 -65 -27 -168 1 -73 7 -122 17 -147 9
-21 16 -53 16 -73 0 -28 4 -35 19 -35 10 0 23 6 29 13 17 21 62 175 72 249 6
38 19 86 29 107 25 49 83 93 119 91 58 -4 74 1 105 34 18 19 42 39 55 45 25
13 30 41 8 41 -27 0 -26 17 4 55 17 21 30 48 30 61 0 26 7 29 30 14 21 -13 38
5 51 54 6 22 17 48 24 56 20 22 65 111 65 127 0 7 12 18 26 23 21 8 25 15 19
33 -3 12 -9 44 -12 71 -5 46 -5 49 15 44 13 -4 23 0 26 9 11 27 6 53 -9 53 -8
0 -23 8 -34 19 -15 15 -28 17 -70 13 -28 -2 -51 -2 -51 2 0 3 22 17 48 30 27
13 54 32 62 41 10 12 23 14 56 9 36 -5 45 -3 50 11 10 26 -19 50 -44 36 -32
-17 -35 -14 -29 29 9 65 38 115 70 118 35 4 45 27 23 51 -9 10 -16 31 -16 47
-1 43 -18 111 -45 181 -14 34 -25 73 -25 87 0 15 -12 62 -27 106 -21 62 -24
83 -15 92 9 9 15 9 24 0 16 -16 28 -15 28 3 0 19 -35 89 -64 128 -18 25 -21
43 -22 165 -1 146 -8 185 -56 297 -16 39 -41 102 -55 140 -39 110 -68 152
-184 271 -60 61 -109 115 -109 120 0 6 5 15 11 21 8 8 4 16 -14 28 -24 15 -28
15 -64 -3 -49 -26 -130 -97 -138 -122 -9 -30 -50 -35 -115 -15 -66 20 -167 16
-254 -10 -57 -17 -66 -18 -66 -6 0 12 90 62 153 86 37 14 46 22 41 34 -4 9 -7
25 -6 36 8 98 10 90 -28 90 -32 0 -35 2 -35 30 0 23 -9 36 -39 59 -34 25 -52
29 -150 38 -135 12 -166 4 -234 -57 -27 -25 -55 -45 -61 -45 -8 0 -10 23 -9
68 3 64 1 70 -33 118 -20 28 -40 60 -43 72 -10 30 -55 82 -71 82 -9 0 -14 -25
-17 -86 -5 -87 -5 -87 -45 -123 -22 -20 -63 -74 -89 -120 -48 -82 -148 -201
-159 -189 -4 3 2 23 13 45 11 21 39 92 62 158 44 125 63 166 106 225 24 33 25
41 23 141 -3 104 5 139 33 139 5 0 22 -29 38 -65 31 -69 31 -69 128 -79 41 -4
52 -2 52 10 0 36 -49 111 -127 194 -130 138 -306 262 -420 296 -25 8 -67 30
-94 49 -56 40 -59 41 -81 19z m-63 -164 c-7 -11 -71 -30 -102 -30 -34 0 -28
18 10 29 43 12 100 13 92 1z m-965 -104 c-20 -18 -170 -66 -206 -66 -28 1 -28
1 -9 16 26 19 162 63 200 64 25 0 27 -2 15 -14z m1215 -56 c3 -5 1 -10 -4 -10
-6 0 -11 5 -11 10 0 6 2 10 4 10 3 0 8 -4 11 -10z m-65 -80 c35 -18 55 -50 31
-50 -6 0 -71 47 -90 66 -12 11 25 2 59 -16z m-883 -115 c17 -27 48 -66 69 -86
53 -53 43 -68 -37 -56 -35 5 -69 11 -76 13 -14 3 -29 55 -39 132 l-7 54 29 -4
c22 -2 36 -15 61 -53z m276 21 c28 -20 33 -46 10 -53 -7 -3 -18 7 -24 21 -14
29 -49 35 -69 11 -20 -24 -47 -18 -58 14 -6 16 -8 32 -5 34 12 12 120 -8 146
-27z m-1043 4 c0 -5 -4 -10 -10 -10 -5 0 -10 5 -10 10 0 6 5 10 10 10 6 0 10
-4 10 -10z m601 -54 c9 -15 8 -17 -3 -11 -30 18 -48 39 -48 59 0 20 1 20 21
-4 11 -14 24 -33 30 -44z m726 -37 c-4 -66 -10 -87 -35 -124 -16 -25 -35 -65
-41 -89 -14 -58 -31 -68 -31 -19 0 35 62 268 82 306 19 38 31 5 25 -74z m166
56 l37 -35 -16 -68 c-19 -77 -35 -112 -74 -162 -15 -19 -42 -61 -61 -92 -62
-107 -83 -54 -25 66 23 48 41 112 57 198 13 71 29 128 34 128 6 0 27 -16 48
-35z m-352 -177 c-9 -62 -14 -75 -41 -96 -17 -13 -42 -47 -56 -75 -22 -43 -25
-58 -19 -104 3 -29 4 -53 1 -53 -2 0 -16 4 -30 10 -41 15 -33 57 38 214 35 78
71 165 79 194 9 29 20 58 24 65 13 19 15 -75 4 -155z m561 55 c-7 -90 -15
-103 -56 -96 -29 5 -39 1 -61 -23 -15 -16 -35 -45 -45 -65 -10 -19 -39 -58
-64 -85 -45 -48 -45 -49 -46 -21 0 31 21 77 44 97 9 7 41 46 72 86 30 41 68
81 85 89 19 10 29 23 29 39 0 27 7 36 30 36 14 0 16 -9 12 -57z m-993 -57 c7
-8 17 -61 22 -118 5 -57 11 -117 14 -134 3 -17 3 -39 -1 -47 -5 -14 -11 -11
-38 15 -17 17 -53 45 -81 62 -38 24 -58 46 -82 91 -36 66 -40 92 -19 120 12
17 17 18 52 6 33 -10 45 -10 74 3 44 19 45 19 59 2z m1097 -23 c18 -41 13 -84
-16 -150 -18 -42 -44 -56 -53 -30 -6 18 -80 -62 -114 -124 l-28 -53 -9 52 c-8
46 -6 59 18 111 14 32 26 65 26 73 0 26 38 65 70 71 17 4 32 12 35 19 20 57
26 68 40 68 9 0 23 -16 31 -37z m-1550 -5 c21 -42 44 -68 59 -68 6 0 26 20 44
46 18 25 38 43 44 41 8 -2 14 -40 18 -98 3 -52 9 -104 13 -116 11 -33 -12 -29
-51 9 -43 41 -49 25 -28 -73 19 -92 19 -109 0 -109 -30 0 -65 24 -95 66 l-32
44 -18 -22 c-23 -29 -35 -19 -96 78 -47 75 -64 138 -47 168 8 14 18 2 54 -65
47 -88 70 -112 90 -92 9 9 5 35 -19 110 -33 105 -32 113 20 113 21 0 31 -8 44
-32z m-456 1 c0 -11 -4 -17 -10 -14 -5 3 -10 13 -10 21 0 8 5 14 10 14 6 0 10
-9 10 -21z m130 1 c10 -5 24 -27 31 -47 6 -21 33 -60 60 -88 26 -28 50 -62 54
-77 9 -35 -14 -49 -33 -20 -22 33 -29 27 -36 -28 -4 -27 -11 -50 -17 -50 -18
0 -55 49 -67 89 -18 57 -36 196 -29 215 7 19 12 19 37 6z m889 -47 c13 -9 40
-17 60 -18 l36 -1 -3 -64 c-1 -39 -9 -74 -19 -89 -15 -24 -17 -24 -27 -7 -16
26 -82 127 -102 153 -29 40 9 59 55 26z m-1191 -161 c-3 -14 -6 -14 -16 6 -7
12 -10 27 -6 33 9 15 27 -16 22 -39z m215 11 c14 -50 17 -73 9 -73 -9 0 -42
64 -42 80 0 17 28 11 33 -7z m2498 -46 c-8 -8 -11 -7 -11 4 0 20 13 34 18 19
3 -7 -1 -17 -7 -23z m-2635 -22 c14 -14 29 -25 34 -25 6 0 10 -22 10 -50 0
-72 43 -160 80 -160 17 0 90 -71 90 -89 0 -5 10 -12 23 -16 l22 -8 -22 -4
c-28 -5 -86 24 -154 80 -45 36 -60 58 -88 123 -19 43 -40 86 -46 94 -24 29
-27 58 -8 69 26 15 31 14 59 -14z m2835 -36 c-13 -11 -27 -17 -30 -13 -7 7 28
34 43 34 6 -1 0 -10 -13 -21z m-402 -51 c-18 -15 -39 -28 -46 -28 -21 0 -2 30
36 56 48 32 56 10 10 -28z m584 37 c-3 -13 -53 -20 -53 -7 0 15 13 23 35 20
11 -2 19 -7 18 -13z m-1883 -107 c0 -67 -12 -90 -24 -45 -8 30 -8 122 1 130
14 14 23 -20 23 -85z m-1456 -23 c37 -38 65 -85 49 -85 -8 0 -123 113 -123
122 0 21 35 4 74 -37z m2342 30 c4 -8 4 -22 0 -30 -7 -19 -36 -8 -36 14 0 32
26 43 36 16z m-601 -85 c-18 -35 -41 -48 -57 -32 -14 14 5 62 41 99 l26 28 3
-32 c2 -17 -4 -46 -13 -63z m1385 43 c-1 -19 -83 -93 -104 -93 -17 0 -2 31 31
63 32 33 73 49 73 30z m-405 -28 c0 -26 -51 -33 -80 -11 -17 14 -18 17 -5 26
8 6 31 9 50 8 27 -2 35 -7 35 -23z m-226 -21 c17 -14 31 -31 31 -37 0 -25 19
-40 56 -46 20 -3 39 -11 41 -17 2 -6 -14 -33 -37 -60 -48 -58 -53 -99 -16
-134 30 -27 56 -21 56 14 0 14 11 41 24 61 14 20 28 57 31 83 9 69 11 72 44
72 21 0 34 -7 42 -22 7 -13 34 -43 61 -69 29 -27 48 -54 48 -67 0 -12 -4 -22
-8 -22 -5 0 -17 -6 -27 -14 -16 -12 -17 -16 -6 -30 19 -22 52 -20 58 4 4 14
14 20 33 20 21 0 29 6 34 25 4 14 13 25 20 25 17 0 66 -56 66 -75 0 -23 39
-53 89 -70 52 -17 121 -69 121 -91 0 -17 5 -18 -56 5 -60 23 -125 31 -131 15
-7 -20 38 -63 76 -74 42 -11 87 -52 76 -70 -7 -12 -48 -10 -109 6 -39 9 -31
-13 15 -43 19 -13 41 -28 49 -35 8 -7 27 -18 42 -25 15 -7 28 -16 28 -22 0
-19 -20 -22 -44 -6 -29 19 -61 16 -61 -5 0 -19 102 -70 141 -70 47 0 67 -28
59 -82 -6 -38 -3 -48 24 -82 17 -21 31 -45 31 -53 0 -7 7 -16 15 -19 17 -7 21
-34 5 -34 -5 0 -19 9 -29 19 -28 28 -32 16 -14 -42 13 -44 13 -60 2 -105 -11
-46 -10 -57 4 -88 9 -19 17 -42 17 -51 0 -29 -31 9 -39 48 -6 29 -13 36 -51
49 -37 13 -48 23 -64 58 -19 42 -46 57 -46 26 0 -9 8 -38 17 -63 20 -56 13
-81 -22 -81 -35 0 -33 -32 5 -72 17 -17 30 -35 30 -39 0 -5 16 -26 35 -48 19
-21 44 -63 54 -93 22 -63 60 -141 107 -218 19 -31 43 -86 53 -123 11 -37 32
-97 47 -134 33 -84 74 -229 66 -237 -13 -14 -47 -4 -110 32 -105 59 -230 113
-292 125 -34 7 -69 23 -89 40 -35 29 -51 33 -68 16 -9 -9 -20 -9 -44 0 -17 6
-54 11 -80 11 -60 0 -99 14 -99 37 0 9 -28 64 -62 121 -65 108 -126 169 -198
199 -147 63 -590 59 -831 -8 -171 -47 -250 -103 -388 -273 -53 -66 -63 -85
-65 -120 -2 -56 -30 -62 -51 -12 -19 44 -17 44 -235 15 -146 -19 -161 -20
-182 -5 -25 18 -58 21 -58 7 0 -6 4 -12 9 -15 24 -15 24 -126 0 -126 -14 0
-46 57 -75 135 -14 39 -35 78 -45 87 -11 9 -62 33 -114 53 -52 21 -98 41 -101
47 -3 5 1 17 10 27 23 25 20 51 -10 95 -29 42 -44 36 -44 -16 0 -23 -5 -28
-24 -28 -29 0 -42 15 -51 60 -13 63 -46 140 -60 140 -20 0 -73 48 -90 81 -8
15 -15 45 -15 66 0 48 -18 113 -31 113 -18 0 -6 74 12 78 20 4 69 -88 69 -129
0 -34 32 -59 76 -59 17 0 37 7 44 15 18 22 5 98 -30 173 -17 36 -30 70 -30 78
0 7 -18 23 -40 34 -25 13 -45 32 -54 53 -7 17 -34 52 -60 77 -25 24 -46 52
-46 62 0 25 125 155 179 185 25 14 75 42 111 63 36 20 81 43 100 50 49 19 91
50 84 61 -3 6 2 21 11 35 17 27 30 28 109 8 35 -8 56 14 56 58 0 16 8 43 17
61 9 18 19 50 22 72 6 38 8 40 49 47 26 4 57 19 78 37 36 32 38 33 149 50 39
7 81 14 95 17 18 4 31 -1 44 -15 24 -26 52 -27 94 -1 35 21 37 28 23 77 -14
49 7 62 69 40 58 -21 103 -22 138 -3 75 38 83 41 92 26 5 -8 6 -18 4 -22 -10
-16 8 -86 23 -92 9 -4 26 6 44 25 24 26 33 30 59 24 43 -9 66 1 92 43 26 43
57 71 78 72 8 0 24 -17 35 -37 24 -44 44 -53 52 -24 6 25 61 56 116 66 30 6
37 4 37 -9 0 -22 13 -20 35 4 14 15 30 20 59 20 23 -1 51 1 62 5 17 5 26 0 43
-24 12 -17 26 -31 31 -31 5 0 32 20 61 45 29 25 58 45 65 45 7 0 26 -12 43
-26z m1329 14 c-2 -6 -17 -16 -34 -21 -16 -5 -37 -16 -46 -25 -17 -14 -18 -13
-18 15 0 39 5 43 58 43 29 0 42 -4 40 -12z m-911 -69 c46 -17 -7 -60 -55 -45
-21 7 -62 43 -62 55 0 10 84 2 117 -10z m-2787 -34 c20 -24 6 -28 -15 -5 -10
11 -13 20 -8 20 6 0 16 -7 23 -15z m165 4 c11 -17 -1 -21 -15 -4 -8 9 -8 15
-2 15 6 0 14 -5 17 -11z m-75 -184 c81 -27 77 -25 56 -41 -24 -17 -92 -18
-105 -1 -48 58 -131 167 -140 185 -24 45 -7 34 67 -45 58 -62 88 -87 122 -98z
m3425 129 c26 -17 101 -121 93 -129 -3 -3 -28 10 -56 29 -28 18 -73 39 -101
46 -56 13 -64 26 -27 40 13 5 27 14 31 19 9 15 32 14 60 -5z m-3911 -29 c55
-35 146 -130 146 -152 0 -7 8 -17 18 -22 16 -10 16 -10 0 -11 -10 0 -45 25
-78 55 -34 30 -69 57 -78 60 -15 5 -79 105 -67 105 2 0 29 -16 59 -35z m1220
10 c3 -8 1 -15 -4 -15 -6 0 -10 7 -10 15 0 8 2 15 4 15 2 0 6 -7 10 -15z
m-739 -5 c3 -5 1 -10 -4 -10 -6 0 -11 5 -11 10 0 6 2 10 4 10 3 0 8 -4 11 -10z
m3535 -20 c0 -5 -2 -10 -4 -10 -3 0 -8 5 -11 10 -3 6 -1 10 4 10 6 0 11 -4 11
-10z m-4169 -21 c18 -12 33 -35 40 -62 7 -28 33 -66 78 -116 69 -78 130 -123
190 -141 109 -34 124 -56 33 -47 -108 9 -216 88 -310 225 -55 81 -92 144 -92
157 0 12 34 4 61 -16z m799 7 l25 -14 -38 -7 c-24 -5 -42 -3 -52 5 -34 28 19
41 65 16z m-400 -60 c0 -4 -7 -5 -16 -2 -9 3 -18 6 -20 6 -2 0 -4 12 -4 28 l0
27 20 -25 c11 -14 20 -29 20 -34z m568 -3 c2 -9 -7 -13 -27 -13 -32 0 -50 15
-29 24 21 8 51 2 56 -11z m2959 -69 c67 -19 146 -82 196 -158 61 -92 27 -120
-50 -41 -26 28 -51 45 -66 45 -13 0 -46 20 -76 45 -51 44 -101 60 -101 32 0
-57 49 -126 120 -170 56 -34 137 -100 115 -94 -11 3 -54 15 -95 26 -52 15 -81
28 -96 46 -11 14 -37 30 -58 36 -41 11 -64 49 -73 120 -4 30 -1 39 22 57 23
18 26 27 21 53 l-6 31 48 -6 c26 -4 71 -14 99 -22z m-3995 -19 c0 -5 -5 -11
-11 -13 -6 -2 -11 4 -11 13 0 9 5 15 11 13 6 -2 11 -8 11 -13z m243 5 c3 -5 1
-10 -4 -10 -6 0 -11 5 -11 10 0 6 2 10 4 10 3 0 8 -4 11 -10z m4087 -7 c10 -9
18 -26 18 -37 -1 -19 -2 -19 -25 7 -37 42 -32 65 7 30z m-3555 -137 c-6 -17
-27 -18 -33 -2 -3 9 -3 24 1 34 6 16 7 16 21 -3 8 -10 13 -24 11 -29z m3643
-33 c34 -38 72 -112 64 -124 -14 -24 -94 44 -115 98 -26 68 2 83 51 26z
m-3504 -65 c18 -29 -114 -87 -174 -76 -34 7 -18 32 25 40 23 3 59 16 80 27 44
23 59 25 69 9z m3503 -119 c29 -31 83 -137 76 -149 -10 -16 -40 -12 -58 8 -39
43 -74 162 -47 162 5 0 18 -9 29 -21z m151 -34 c10 -12 10 -15 -3 -15 -8 0
-20 7 -27 15 -10 12 -10 15 3 15 8 0 20 -7 27 -15z m-327 -55 c20 -29 24 -40
14 -40 -8 0 -20 7 -27 15 -7 8 -18 15 -26 15 -17 0 -27 17 -20 35 9 25 30 16
59 -25z m-157 -50 c34 -33 69 -60 77 -60 15 0 97 -83 97 -98 0 -4 -5 -13 -12
-20 -9 -9 -9 -18 0 -37 14 -30 16 -65 4 -65 -5 0 -21 14 -37 30 -23 24 -31 43
-35 83 -4 45 -8 52 -28 55 -14 2 -34 22 -56 55 -18 29 -45 63 -60 76 -25 24
-33 41 -19 41 3 0 34 -27 69 -60z m458 -46 c17 -16 22 -64 7 -64 -11 0 -41 62
-35 72 7 11 10 10 28 -8z m-610 -20 c9 -3 16 -15 16 -25 0 -14 -7 -19 -30 -19
-31 0 -39 17 -18 38 14 14 12 14 32 6z m-3394 -170 c0 -21 -27 -17 -33 5 -3
11 -2 22 1 25 8 9 32 -14 32 -30z m3478 -21 c21 -31 35 -77 26 -86 -18 -18
-84 64 -84 103 0 21 39 9 58 -17z m92 -53 c0 -5 -2 -10 -4 -10 -3 0 -8 5 -11
10 -3 6 -1 10 4 10 6 0 11 -4 11 -10z m613 -45 c7 -17 -16 -96 -42 -144 l-18
-35 -12 66 c-14 83 -15 78 14 78 18 0 26 7 31 25 7 28 19 32 27 10z m-156 -47
c-3 -8 -6 -5 -6 6 -1 11 2 17 5 13 3 -3 4 -12 1 -19z m-527 -52 c0 -6 -7 -2
-15 8 -8 11 -15 25 -15 30 0 6 7 2 15 -8 8 -11 15 -25 15 -30z m804 -146 c-5
-36 -8 -41 -15 -25 -10 25 -11 98 -2 122 11 29 24 -44 17 -97z m-164 -9 c0 -6
-4 -13 -10 -16 -5 -3 -10 1 -10 9 0 9 5 16 10 16 6 0 10 -4 10 -9z m-84 -23
c9 -29 7 -133 -4 -173 -15 -53 -27 -28 -30 62 -3 92 2 133 18 133 5 0 12 -10
16 -22z m94 -175 c0 -12 -4 -24 -10 -28 -13 -8 -34 69 -25 92 6 16 9 14 21
-12 7 -16 13 -40 14 -52z m-430 -184 c0 -11 -4 -17 -10 -14 -5 3 -10 15 -10
26 0 11 5 17 10 14 6 -3 10 -15 10 -26z m328 4 c-2 -17 -10 -29 -20 -31 -15
-3 -16 0 -7 27 14 38 31 41 27 4z m-2558 -19 c0 -16 -16 -19 -25 -4 -8 13 4
32 16 25 5 -4 9 -13 9 -21z m2720 -204 c0 -24 -55 -88 -66 -77 -12 11 33 97
51 97 8 0 15 -9 15 -20z m-1574 -76 c7 -38 -30 -259 -53 -316 -8 -21 -21 -38
-29 -38 -10 0 -8 12 8 48 18 40 21 68 22 197 2 157 9 192 32 160 8 -10 16 -33
20 -51z m-3192 48 c7 -11 -31 -58 -40 -49 -4 4 -2 18 4 32 11 25 26 32 36 17z
m3596 -35 c26 -2 75 -19 115 -39 39 -20 106 -50 150 -68 44 -18 85 -36 90 -40
6 -4 27 -13 48 -20 20 -6 35 -15 32 -19 -2 -4 -48 -11 -102 -14 -54 -3 -123
-11 -153 -18 -67 -14 -256 -108 -366 -182 -101 -69 -141 -89 -149 -78 -3 5 10
45 29 88 36 82 56 182 56 280 0 120 18 128 250 110z m-1911 -6 c12 -8 12 -13
-2 -34 -18 -28 -96 -61 -170 -72 -43 -7 -49 -5 -77 23 -17 18 -28 37 -24 45 5
15 38 31 79 40 38 9 180 7 194 -2z m3006 -63 c-11 -36 -49 -100 -53 -89 -5 14
39 111 50 111 5 0 6 -10 3 -22z m-129 -45 c-11 -11 -17 4 -9 23 7 18 8 18 11
1 2 -10 1 -21 -2 -24z m-2776 -92 l-1 -26 -14 25 c-8 14 -14 34 -14 45 0 20 0
20 14 1 8 -11 15 -31 15 -45z m2477 -27 c-9 -9 -28 6 -21 18 4 6 10 6 17 -1 6
-6 8 -13 4 -17z m-2107 -23 c-16 -30 -27 -33 -55 -15 -14 9 -40 20 -58 24 -24
6 -13 8 46 9 74 1 77 0 67 -18z m-1354 -191 c6 -61 4 -70 -15 -89 -11 -11 -22
-21 -23 -21 -2 0 -3 56 -3 125 l-1 125 18 -36 c9 -19 20 -66 24 -104z m-938
-62 c2 -11 -6 -22 -23 -30 -22 -10 -28 -9 -43 6 -16 16 -16 18 3 32 25 19 59
14 63 -8z m856 -304 c9 -23 7 -54 -3 -54 -11 0 -21 25 -21 51 0 23 15 25 24 3z
m-662 -51 c26 -23 23 -43 -7 -43 -27 0 -41 20 -31 45 7 19 15 19 38 -2z m-23
-195 c1 -48 -9 -75 -20 -56 -11 16 -12 112 -2 122 10 10 21 -23 22 -66z m1257
-2452 c35 -40 41 -56 25 -56 -16 0 -131 111 -125 121 8 14 62 -21 100 -65z
m3389 -346 c-5 -8 -11 -8 -17 -2 -6 6 -7 16 -3 22 5 8 11 8 17 2 6 -6 7 -16 3
-22z m-35 -120 c0 -39 -25 -50 -53 -22 -17 17 -18 23 -7 36 7 9 23 16 36 16
20 0 24 -5 24 -30z m64 -56 c3 -9 6 -24 6 -35 0 -13 7 -19 21 -19 11 0 18 -4
15 -9 -4 -5 2 -7 13 -4 39 10 57 -118 21 -150 -11 -9 -20 -23 -20 -31 0 -16
-21 -26 -56 -26 -33 0 -38 -28 -31 -180 4 -102 2 -133 -9 -156 -20 -37 -74
-94 -91 -94 -17 0 -17 54 2 105 16 47 19 121 5 130 -5 3 -10 -1 -10 -9 0 -21
-50 -57 -74 -54 -29 4 -30 23 -1 36 15 7 25 20 25 32 0 11 11 47 25 80 14 33
25 68 25 78 0 26 34 94 59 116 12 11 21 25 21 32 0 7 10 20 22 28 17 12 20 18
10 28 -7 7 -12 20 -12 30 0 10 -7 18 -15 18 -17 0 -20 23 -5 51 13 23 46 25
54 3z m-140 -23 c7 -11 -14 -20 -31 -13 -7 2 -10 8 -7 13 7 12 31 12 38 0z
m-2066 -204 c4 -31 -5 -35 -24 -9 -19 24 -17 44 4 40 10 -2 18 -14 20 -31z
m2022 3 c0 -5 -4 -10 -10 -10 -5 0 -10 5 -10 10 0 6 5 10 10 10 6 0 10 -4 10
-10z m-42 -134 l-3 -24 -24 19 -24 20 24 25 c23 25 24 25 27 5 2 -11 2 -32 0
-45z m444 58 c10 -9 -24 -84 -39 -84 -18 0 -17 40 3 68 15 22 26 27 36 16z
m-2418 -114 c7 -7 0 -10 -21 -10 -38 0 -63 9 -63 22 0 13 69 3 84 -12z m2326
-36 c0 -8 -4 -12 -10 -9 -5 3 -10 13 -10 21 0 8 5 12 10 9 6 -3 10 -13 10 -21z
m-90 -98 c0 -31 -10 -56 -21 -56 -10 0 -12 40 -3 64 9 24 24 19 24 -8z m-25
-106 c-10 -11 -24 -20 -32 -20 -7 0 -13 9 -13 20 0 16 7 20 32 20 30 0 31 0
13 -20z m-357 -66 c3 -31 -18 -52 -39 -38 -11 6 -12 58 -2 68 16 16 38 -1 41
-30z m157 -58 c-9 -21 -34 -57 -56 -81 -22 -23 -45 -62 -52 -86 -13 -46 -45
-74 -92 -84 -23 -5 -27 -4 -15 4 13 10 13 12 0 21 -13 8 -13 14 4 45 11 19 34
46 52 60 18 14 35 34 39 45 6 19 124 124 131 117 3 -2 -3 -21 -11 -41z m-3661
-204 c-15 -48 -19 -53 -22 -29 -2 15 5 53 14 85 15 48 19 53 22 29 2 -15 -5
-53 -14 -85z m2505 -24 c-21 -39 -239 -249 -274 -264 -31 -12 -34 -18 -33 -50
1 -30 -5 -42 -36 -71 -20 -19 -44 -46 -53 -59 -9 -14 -25 -24 -39 -24 -20 0
-24 5 -24 28 0 21 15 41 66 87 75 68 77 79 23 136 -36 39 -37 49 -1 49 33 0
56 -22 66 -62 3 -16 12 -28 18 -28 16 0 68 50 68 65 0 16 96 116 138 145 18
12 37 33 42 46 6 15 18 24 30 24 18 0 19 -3 9 -22z m-2573 -311 c-9 -30 -25
-62 -36 -72 -20 -18 -20 -18 -11 11 48 149 56 168 59 141 2 -15 -4 -51 -12
-80z m3562 -92 c4 -29 -57 -105 -85 -105 -31 0 -36 14 -13 35 11 10 20 24 20
30 0 22 42 66 59 63 9 -2 17 -12 19 -23z"/>
<path d="M3224 8129 c-3 -6 1 -18 10 -27 15 -15 16 -14 16 11 0 27 -13 36 -26
16z"/>
<path d="M2580 8086 c0 -8 5 -18 10 -21 6 -3 10 1 10 9 0 8 -4 18 -10 21 -5 3
-10 -1 -10 -9z"/>
<path d="M4694 7426 c-8 -21 4 -83 17 -92 21 -13 31 13 22 57 -9 44 -29 62
-39 35z"/>
<path d="M4890 7376 c0 -15 45 -56 61 -56 13 0 11 24 -3 42 -19 23 -58 33 -58
14z"/>
<path d="M4590 7318 c11 -29 20 -54 20 -55 0 -2 5 -3 10 -3 6 0 10 9 10 20 0
29 -32 90 -47 90 -10 0 -8 -13 7 -52z"/>
<path d="M2190 6201 c0 -12 47 -34 61 -29 15 5 -6 26 -34 33 -17 5 -27 3 -27
-4z"/>
<path d="M3107 5863 c-15 -15 -5 -46 24 -76 30 -30 32 -30 45 -12 8 10 14 29
14 41 0 35 -61 69 -83 47z"/>
<path d="M6127 5243 c-13 -13 -6 -21 43 -53 57 -37 139 -122 163 -171 l17 -34
0 37 c0 40 -21 69 -123 171 -53 52 -83 68 -100 50z"/>
<path d="M6115 5005 c-103 -55 -205 -144 -205 -180 0 -28 39 -23 91 12 21 14
45 23 53 20 27 -10 46 -64 55 -154 14 -135 34 -169 74 -125 22 24 46 168 54
324 l6 128 -40 0 c-24 0 -60 -10 -88 -25z"/>
<path d="M6342 4928 c-14 -14 -16 -74 -3 -83 6 -3 9 -13 9 -23 0 -9 6 -41 14
-71 13 -48 16 -51 21 -29 4 14 1 43 -6 64 -8 22 -15 64 -16 94 -3 63 -3 64
-19 48z"/>
<path d="M5805 4667 c-34 -28 -35 -56 -7 -154 11 -37 23 -89 27 -115 8 -62 27
-72 116 -66 108 8 113 18 79 165 -22 94 -32 110 -96 154 -61 41 -86 45 -119
16z"/>
<path d="M3584 4628 c4 -18 13 -39 21 -48 13 -13 15 -11 15 14 0 32 -16 66
-32 66 -7 0 -8 -12 -4 -32z"/>
<path d="M6350 4635 c0 -8 4 -15 9 -15 5 0 11 7 15 15 3 9 0 15 -9 15 -8 0
-15 -7 -15 -15z"/>
<path d="M6280 4581 c0 -5 6 -14 14 -20 11 -9 16 -9 21 0 4 6 1 15 -6 20 -18
11 -29 11 -29 0z"/>
<path d="M6210 4342 c0 -16 9 -37 19 -46 19 -18 20 -17 29 15 7 27 6 37 -6 47
-26 20 -42 14 -42 -16z"/>
<path d="M6190 4176 c-7 -20 -7 -33 2 -49 11 -21 12 -20 20 17 10 49 -6 73
-22 32z"/>
<path d="M6162 4040 c-6 -11 -12 -37 -12 -58 0 -25 -7 -45 -19 -56 -10 -9 -21
-34 -24 -54 -3 -20 -8 -45 -12 -54 -4 -10 -3 -18 1 -18 16 1 74 139 74 174 0
19 5 38 10 41 12 7 14 45 2 45 -4 0 -13 -9 -20 -20z"/>
<path d="M3256 3783 c-19 -20 11 -92 33 -78 18 11 13 63 -8 74 -10 6 -21 7
-25 4z"/>
<path d="M5870 3693 c-39 -35 -54 -43 -60 -33 -9 15 -183 21 -197 7 -4 -4 -9
-75 -13 -158 l-5 -150 37 -29 c20 -17 39 -30 42 -30 3 0 6 20 6 45 0 35 4 45
16 45 12 0 15 5 9 23 -16 51 -34 141 -29 149 3 5 37 6 75 2 59 -6 69 -4 69 9
0 27 20 30 44 8 53 -50 131 -12 107 53 -6 15 -11 40 -11 55 0 25 -15 51 -31
51 -4 0 -30 -21 -59 -47z"/>
<path d="M6018 3685 c-6 -30 7 -33 22 -6 13 26 13 31 -4 31 -7 0 -16 -11 -18
-25z"/>
<path d="M4865 1121 c-10 -17 11 -21 31 -6 18 14 18 14 -3 15 -12 0 -24 -4
-28 -9z"/>
<path d="M4770 1100 c0 -5 5 -10 10 -10 6 0 10 5 10 10 0 6 -4 10 -10 10 -5 0
-10 -4 -10 -10z"/>
<path d="M6333 969 c3 -22 8 -43 11 -47 11 -10 27 14 33 51 5 35 4 37 -22 37
-27 0 -27 -2 -22 -41z"/>
<path d="M6321 894 c0 -11 3 -14 6 -6 3 7 2 16 -1 19 -3 4 -6 -2 -5 -13z"/>
<path d="M6230 791 c-13 -25 -13 -34 1 -26 6 4 9 -2 7 -17 -2 -12 2 -25 7 -28
6 -3 11 15 13 43 3 49 -9 62 -28 28z"/>
<path d="M6137 632 c-21 -23 -21 -32 -3 -32 8 0 18 9 21 21 9 28 2 33 -18 11z"/>
<path d="M6044 565 c-10 -25 4 -45 30 -45 23 0 42 32 30 52 -9 14 -54 9 -60
-7z"/>
</g>
</svg>
